<?xml version="1.0" standalone="no"?>
<!DOCTYPE svg PUBLIC "-//W3C//DTD SVG 20010904//EN"
 "http://www.w3.org/TR/2001/REC-SVG-20010904/DTD/svg10.dtd">
<svg version="1.0" xmlns="http://www.w3.org/2000/svg"
 width="512.000000pt" height="512.000000pt" viewBox="0 0 512.000000 512.000000"
 preserveAspectRatio="xMidYMid meet">
<metadata>
Created by potrace 1.15, written by Peter Selinger 2001-2017
</metadata>
<g transform="translate(0.000000,512.000000) scale(0.100000,-0.100000)"
fill="#000000" stroke="none">
<path d="M1860 5025 c-36 -8 -103 -33 -149 -57 -133 -67 -188 -130 -364 -416
-81 -133 -150 -254 -153 -269 -12 -62 -9 -65 504 -391 515 -328 523 -332 573
-293 13 10 103 161 199 335 96 173 178 316 181 316 10 0 381 -709 375 -718 -3
-5 -86 -57 -184 -116 -180 -109 -202 -128 -202 -180 0 -34 36 -74 73 -81 59
-10 1258 -145 1291 -145 22 0 42 8 56 23 12 12 159 306 327 652 332 684 333
685 280 731 -16 14 -41 24 -58 24 -17 0 -107 -39 -218 -95 l-189 -94 -148 257
c-82 141 -168 281 -191 312 -78 103 -196 177 -330 205 -98 21 -1575 20 -1673
0z m580 -375 c103 -206 104 -210 89 -237 -9 -16 -89 -160 -179 -320 -89 -161
-163 -293 -166 -293 -2 0 -770 486 -780 494 -1 1 51 87 116 191 132 214 174
266 251 312 88 53 140 62 364 62 l200 1 105 -210z m1122 182 c112 -45 148 -90
348 -435 99 -172 192 -322 206 -334 14 -13 36 -23 49 -23 13 0 72 25 130 56
59 31 108 54 110 52 4 -3 -450 -947 -457 -953 -5 -4 -930 103 -934 108 -3 2
39 30 92 62 53 31 105 66 115 76 42 42 37 55 -331 751 -192 364 -350 664 -350
665 0 2 217 2 483 1 478 -3 483 -3 539 -26z"/>
<path d="M695 3629 c-335 -22 -620 -41 -633 -44 -62 -14 -85 -103 -39 -148 12
-12 113 -78 224 -147 112 -69 203 -128 203 -133 0 -4 -70 -147 -156 -319 -168
-335 -194 -407 -194 -533 0 -80 27 -201 60 -267 63 -124 772 -1338 810 -1386
57 -72 169 -152 257 -186 96 -37 201 -48 415 -44 182 3 187 4 212 27 l26 24 0
633 0 633 -24 28 -24 28 -331 3 c-182 1 -331 4 -331 6 0 5 402 701 410 709 4
5 85 -22 181 -58 96 -37 190 -67 209 -67 43 0 80 39 80 84 0 39 -512 1155
-542 1181 -28 24 -86 22 -813 -24z m897 -561 c108 -233 194 -424 193 -426 -1
-2 -50 15 -109 38 -115 43 -150 48 -183 25 -11 -8 -187 -303 -389 -655 -203
-352 -371 -640 -374 -640 -5 1 -235 396 -360 620 -91 162 -111 267 -74 390 9
30 94 211 190 402 111 223 174 359 174 378 0 42 -23 62 -168 150 -115 71 -121
75 -90 78 58 7 881 59 939 61 l56 1 195 -422z m108 -1958 l0 -510 -134 0
c-163 0 -221 10 -312 55 -104 51 -151 107 -292 352 -67 116 -122 215 -122 219
0 3 53 94 118 200 l117 194 313 0 312 0 0 -510z"/>
<path d="M4650 3237 c-176 -95 -1022 -596 -1042 -618 -17 -17 -28 -41 -28 -57
0 -16 55 -126 138 -277 76 -138 157 -285 181 -327 l42 -78 -390 0 -391 0 0
188 c0 183 -1 189 -22 209 -29 27 -60 35 -92 27 -18 -4 -170 -164 -471 -496
-473 -520 -466 -510 -433 -571 6 -12 204 -273 440 -580 274 -355 439 -562 455
-568 41 -15 63 -10 94 20 l29 29 0 141 0 141 319 0 c365 0 427 7 542 65 138
70 158 97 503 690 170 292 357 607 414 700 117 190 144 243 167 330 19 75 19
223 0 300 -17 69 -320 687 -350 715 -28 26 -74 34 -105 17z m145 -487 l139
-280 4 -88 c6 -119 -12 -178 -100 -321 -39 -64 -80 -131 -90 -149 l-20 -32
-291 2 -290 3 -178 320 c-130 232 -175 322 -166 328 25 17 842 495 847 496 3
1 68 -125 145 -279z m-1782 -1018 l27 -27 790 -5 790 -5 -274 -470 c-182 -311
-289 -485 -317 -514 -24 -24 -73 -58 -109 -75 l-65 -31 -400 -3 c-286 -2 -407
-6 -423 -14 -31 -16 -43 -41 -51 -100 l-6 -48 -318 414 c-176 228 -319 418
-319 421 0 4 143 164 319 357 l318 350 5 -111 c5 -104 8 -113 33 -139z"/>
</g>
</svg>
