<?xml version="1.0" standalone="no"?>
<!DOCTYPE svg PUBLIC "-//W3C//DTD SVG 20010904//EN"
 "http://www.w3.org/TR/2001/REC-SVG-20010904/DTD/svg10.dtd">
<svg version="1.0" xmlns="http://www.w3.org/2000/svg"
 width="570.000000pt" height="869.000000pt" viewBox="0 0 570.000000 869.000000"
 preserveAspectRatio="xMidYMid meet">
<metadata>
Created by potrace 1.15, written by Peter Selinger 2001-2017
</metadata>
<g transform="translate(0.000000,869.000000) scale(0.100000,-0.100000)"
fill="#000000" stroke="none">
<path d="M1506 7488 c-9 -12 -16 -26 -16 -30 0 -18 -57 -98 -65 -91 -4 5 -5 3
-2 -3 7 -11 -29 -104 -39 -104 -3 0 -17 12 -31 28 -30 31 -21 9 10 -25 l20
-22 -61 -143 c-81 -191 -115 -290 -152 -433 -17 -65 -33 -122 -36 -127 -9 -13
-54 -261 -49 -266 3 -3 1 -10 -4 -16 -4 -6 -5 -33 -2 -61 l7 -50 7 45 c15 88
61 259 69 254 4 -3 5 2 2 11 -3 8 4 45 16 83 47 138 82 240 116 331 19 52 33
96 31 98 -10 9 -141 -353 -178 -490 -37 -137 -32 -74 6 79 51 205 133 442 212
614 14 30 34 78 45 105 11 28 42 92 69 143 48 87 58 118 25 70z"/>
<path d="M1339 6998 c-1 -5 -6 -70 -13 -188 -6 -80 -3 -171 8 -300 9 -101 16
-220 16 -263 l0 -79 -42 6 c-24 3 -51 6 -61 7 -10 0 -15 5 -11 11 4 7 2 8 -4
4 -13 -8 -68 18 -65 31 1 4 -5 7 -14 5 -8 -2 -13 1 -10 5 3 5 -4 10 -16 10
-21 2 -21 1 3 -18 51 -39 125 -69 178 -70 l52 -2 1 -46 c0 -25 4 -64 8 -86 8
-35 9 -31 10 37 0 42 5 79 10 82 4 3 17 -1 27 -9 10 -8 27 -15 37 -15 13 0 17
-9 17 -40 0 -41 14 -52 38 -28 9 9 11 -4 7 -58 -2 -38 -2 -55 1 -39 17 115 28
166 44 212 10 29 15 53 11 53 -7 0 -20 -36 -37 -100 -8 -31 -32 -70 -43 -70
-9 0 -26 142 -37 298 -4 51 -10 95 -15 98 -8 4 -7 -21 6 -186 l6 -75 -25 55
c-15 35 -23 68 -21 90 12 114 16 135 25 138 5 2 9 31 9 65 -1 34 -3 53 -5 42
-2 -11 -9 -45 -16 -75 -6 -30 -19 -111 -29 -180 l-18 -125 4 160 c3 88 11 194
19 235 8 41 17 91 20 110 6 35 6 35 -4 5 -6 -16 -19 -81 -30 -144 -11 -63 -22
-116 -24 -118 -9 -9 -18 303 -13 425 3 72 4 132 2 132 -3 0 -5 -1 -6 -2z"/>
<path d="M3986 6823 c-13 -39 -18 -90 -19 -172 0 -126 13 -189 58 -268 14 -25
22 -50 18 -56 -3 -5 -1 -7 5 -3 6 3 13 2 16 -3 8 -12 -63 -153 -74 -146 -5 3
-12 0 -16 -6 -4 -8 -3 -9 4 -5 7 4 12 4 12 1 0 -11 -55 -85 -63 -85 -5 0 -6 4
-2 9 3 6 -9 26 -26 45 -25 29 -38 36 -69 36 -21 0 -43 -7 -50 -15 -7 -8 -18
-15 -25 -15 -7 0 -16 -7 -19 -16 -14 -38 -17 -2 -3 53 8 32 23 97 33 146 10
48 22 87 25 87 10 0 22 -119 18 -174 -5 -60 8 -59 18 2 17 102 -2 456 -26 484
-4 4 -1 -39 6 -95 6 -56 11 -140 11 -187 l0 -85 -18 70 c-10 39 -19 60 -19 48
-1 -28 -56 -272 -76 -337 -8 -26 -12 -53 -8 -59 3 -5 1 -7 -4 -4 -6 4 -16 -7
-23 -24 -7 -17 -19 -37 -27 -45 -12 -12 -12 -14 0 -14 8 0 20 14 27 30 12 30
34 53 26 28 -3 -7 -19 -94 -36 -193 -17 -99 -40 -209 -50 -245 -11 -35 -17
-66 -15 -68 4 -4 37 105 49 161 4 15 12 27 20 27 7 0 20 8 27 18 11 14 11 15
-1 5 -21 -19 -43 -16 -36 4 4 9 14 60 23 112 17 109 28 130 85 171 22 17 36
30 30 30 -7 0 -30 -16 -52 -36 l-40 -37 6 38 c7 49 28 79 69 105 74 46 135 10
135 -80 0 -26 -7 -64 -15 -84 -8 -20 -13 -36 -10 -36 7 0 35 69 35 87 0 7 24
48 54 91 30 42 64 100 77 127 13 28 25 52 26 54 1 2 25 -19 53 -47 29 -27 67
-58 86 -68 49 -27 44 -63 -19 -146 -42 -55 -21 -56 42 -2 34 30 40 32 44 17 3
-11 5 -6 6 11 l1 30 -35 -34 c-40 -39 -57 -35 -27 7 26 37 42 96 42 157 0 59
-9 57 -12 -3 -1 -32 -5 -41 -17 -38 -9 2 -15 9 -13 16 1 7 -2 10 -8 6 -12 -8
-80 43 -77 58 1 6 -3 11 -10 12 -6 0 -22 14 -34 30 -13 17 -26 32 -29 35 -10
8 -47 81 -65 130 -22 57 -26 304 -6 363 7 21 11 40 9 43 -3 2 -12 -22 -22 -53z"/>
<path d="M1576 6653 c-3 -10 -8 -36 -13 -58 l-7 -40 -6 40 c-4 28 -8 3 -14
-85 -5 -83 -4 -137 3 -160 l10 -35 -4 40 c-3 22 -2 52 2 68 7 24 13 15 52 -85
25 -62 52 -124 61 -138 14 -21 27 -46 35 -70 1 -3 10 -23 20 -45 21 -47 53
-161 59 -208 3 -18 8 -45 11 -59 11 -44 -1 -63 -52 -78 -27 -8 -52 -15 -56
-15 -17 0 -87 197 -87 245 0 10 -4 21 -9 24 -8 5 -2 -35 18 -115 9 -40 61
-179 66 -179 13 0 121 46 126 53 4 6 16 -10 27 -34 35 -77 131 -164 267 -241
101 -57 213 -113 245 -122 14 -4 -36 23 -110 61 -167 85 -239 131 -313 205
-70 69 -91 113 -112 238 -17 96 -77 269 -121 348 -13 23 -46 94 -73 156 l-49
114 13 58 c7 33 14 55 14 49 11 -91 29 -186 35 -193 3 -2 17 3 32 13 14 9 49
26 78 36 28 11 38 17 21 14 -16 -3 -51 -16 -77 -29 l-46 -22 -7 33 c-8 46 -27
195 -27 216 1 9 -1 17 -3 17 -2 0 -6 -8 -9 -17z"/>
<path d="M3458 6530 c-3 -19 -14 -58 -25 -87 -16 -44 -22 -50 -37 -41 -17 9
-17 11 1 30 18 20 18 21 -3 8 -19 -12 -29 -8 -85 26 -35 21 -66 41 -69 44 -3
3 -14 6 -25 7 -11 1 -45 7 -75 12 -96 16 -244 -21 -287 -72 l-18 -22 24 20 24
20 -8 -25 c-4 -14 -17 -36 -29 -49 -20 -23 -19 -23 15 2 20 15 51 30 70 33
l34 6 -47 -31 c-50 -34 -63 -59 -74 -147 -11 -89 37 -215 108 -279 27 -25 26
-23 -7 14 -25 30 -34 46 -26 49 8 3 17 -2 22 -9 6 -10 10 -5 15 18 4 19 11 30
17 26 7 -4 8 1 4 13 -6 15 -3 14 13 -5 l20 -23 0 25 c0 14 -4 29 -10 32 -5 3
-10 16 -11 28 0 21 -1 21 -9 2 -7 -16 -9 -14 -7 12 1 26 6 32 29 37 17 3 33
15 39 29 6 14 25 29 45 35 24 7 32 7 27 -1 -4 -6 0 -8 10 -4 8 3 21 -1 28 -9
7 -8 19 -14 28 -12 9 1 26 -6 39 -17 12 -11 25 -19 29 -17 6 3 24 -25 43 -68
22 -48 -30 -131 -116 -188 -11 -7 -6 -6 11 2 71 34 125 115 124 191 0 101 -45
221 -91 246 -11 6 -18 13 -15 16 10 9 88 -48 81 -59 -4 -7 -3 -8 4 -4 17 10
79 -60 98 -111 11 -28 15 -59 12 -88 -3 -25 -2 -45 3 -45 4 0 20 16 35 36 19
25 29 31 35 23 5 -8 -5 -27 -25 -49 -61 -68 -175 -303 -162 -336 3 -7 1 -14
-4 -16 -5 -2 -11 -28 -15 -58 l-6 -55 24 70 c34 98 57 148 65 141 3 -4 12 12
19 36 17 58 10 58 -17 1 -13 -28 -25 -42 -28 -34 -7 20 87 198 130 244 28 30
41 37 57 32 12 -3 21 -11 21 -16 0 -5 6 -9 13 -9 14 0 48 -35 80 -80 9 -13 17
-19 17 -12 0 30 -126 141 -152 134 -23 -6 9 108 37 136 14 14 25 29 25 34 0 5
-11 -4 -25 -19 l-26 -28 2 30 c2 51 -4 62 -10 20 l-6 -40 -23 39 c-22 37 -22
39 -5 60 l18 21 -22 -19 c-21 -17 -23 -17 -23 -2 0 9 9 44 21 78 11 33 19 70
17 82 -3 15 -6 11 -10 -14z m-437 -147 c7 -18 6 -36 -1 -56 -13 -40 -13 -47 5
-47 21 0 19 -23 -4 -51 -15 -18 -22 -21 -31 -12 -9 8 -16 7 -30 -7 -12 -12
-27 -16 -40 -13 -63 17 -65 129 -4 183 46 40 90 41 105 3z"/>
<path d="M1924 6522 c-46 -16 -51 -16 -47 -3 2 9 -3 4 -11 -11 -9 -15 -28 -29
-46 -33 -16 -4 -32 -10 -35 -15 -3 -4 4 -6 16 -3 21 6 21 6 -2 -36 -14 -24
-29 -39 -37 -36 -8 3 -10 0 -6 -6 5 -8 -23 -86 -42 -117 -1 -2 -13 2 -26 9
-23 12 -23 11 2 -13 14 -13 34 -35 44 -49 11 -13 31 -38 46 -55 l27 -32 7 67
c3 36 11 83 17 104 12 45 76 111 122 126 27 9 30 9 15 -3 -45 -34 -60 -139
-37 -248 13 -62 50 -138 75 -159 13 -10 12 -6 -4 15 -26 34 -27 44 -7 73 17
24 22 22 76 -29 18 -17 53 -38 63 -38 3 0 6 5 6 11 0 7 8 17 17 24 15 11 14
13 -10 13 -15 0 -27 -6 -27 -12 0 -6 -5 -3 -11 7 -6 9 -14 15 -20 12 -5 -4 -9
-2 -9 3 0 5 -10 12 -21 15 -19 5 -21 11 -17 57 4 34 12 57 26 70 24 22 72 27
72 8 0 -9 3 -9 9 1 13 20 72 21 91 3 8 -9 18 -43 21 -76 6 -53 6 -50 4 19 -2
44 -8 94 -14 110 -5 17 -15 50 -22 73 -16 55 -89 122 -166 151 -66 25 -74 25
-139 3z m138 -119 c29 -33 30 -58 3 -98 -18 -26 -21 -36 -11 -32 11 4 16 1 16
-11 0 -11 -14 -22 -42 -30 -41 -13 -43 -13 -65 13 -13 14 -23 35 -23 45 0 37
33 101 59 115 34 19 45 18 63 -2z"/>
<path d="M1656 4990 c20 -47 40 -94 44 -106 8 -21 44 -30 37 -10 -3 6 -10 10
-16 8 -7 -1 -10 2 -6 8 4 7 12 7 26 0 11 -6 25 -8 31 -4 8 5 9 2 4 -11 -5 -14
-4 -16 7 -7 11 9 19 6 37 -13 13 -14 30 -25 37 -25 8 0 11 -4 8 -10 -3 -6 1
-7 10 -4 11 5 14 2 9 -12 -5 -16 -4 -16 5 -4 9 13 13 12 26 -8 9 -12 22 -22
28 -20 34 6 63 -17 58 -46 -1 -5 5 -4 13 3 16 13 40 6 31 -9 -5 -9 -72 -5
-103 5 -7 3 -10 0 -7 -5 3 -6 18 -10 33 -11 l27 -1 -26 -8 c-14 -4 -37 -6 -50
-5 -13 1 -31 3 -39 4 -13 1 -13 2 0 11 13 8 12 10 -5 11 -11 1 -24 3 -30 4 -5
2 -14 3 -19 4 -5 0 -1 10 9 21 11 12 13 20 6 20 -7 0 -9 5 -5 12 4 7 3 8 -4 4
-6 -4 -8 -14 -5 -24 4 -10 -12 -2 -40 21 -56 46 -61 37 -11 -21 40 -47 123
-90 227 -117 37 -9 67 -19 67 -20 0 -2 -15 -26 -34 -53 -33 -49 -76 -160 -76
-191 1 -9 12 18 26 59 13 41 32 84 42 95 51 56 84 79 124 84 77 11 61 30 -94
119 -79 45 -147 82 -151 82 -29 0 -212 155 -265 225 -17 24 -14 12 14 -55z"/>
<path d="M3812 4820 c-12 -15 -19 -30 -15 -33 5 -2 2 -2 -5 -1 -7 2 -38 -9
-70 -25 -47 -24 -124 -49 -202 -66 -93 -20 -289 -85 -344 -113 -110 -60 -152
-128 -76 -126 19 0 39 -6 43 -13 4 -7 13 -13 19 -13 6 0 5 7 -3 18 -11 14 -11
15 1 5 13 -12 20 -30 22 -60 1 -7 -6 -38 -15 -70 -8 -32 -21 -84 -27 -115 -9
-48 -70 -162 -100 -188 -3 -3 -20 -24 -39 -47 -22 -30 -40 -43 -57 -43 -14 0
-50 -13 -82 -29 -31 -16 -83 -37 -114 -46 l-57 -18 -58 38 c-74 49 -170 141
-192 183 l-17 32 -37 -39 c-39 -41 -70 -60 -147 -92 -25 -10 -38 -18 -30 -19
29 0 140 61 176 98 28 28 38 33 42 22 10 -28 108 -124 185 -181 85 -62 85 -62
-11 -74 -29 -4 -51 -9 -48 -12 3 -3 41 0 86 7 81 13 163 45 234 93 26 19 52
27 80 27 44 0 118 -17 126 -30 3 -4 17 -11 32 -16 37 -12 197 -126 259 -184
27 -25 49 -43 49 -39 0 15 -127 121 -212 177 -48 31 -87 60 -87 63 -1 3 44 23
100 45 55 21 96 40 90 42 -5 2 -24 -4 -41 -13 -50 -26 -47 -10 3 20 56 32 111
49 115 35 2 -6 8 -8 13 -4 5 3 7 10 4 15 -12 19 -62 8 -118 -26 -32 -19 -63
-35 -68 -35 -6 0 -9 -6 -6 -12 2 -8 -15 -20 -42 -30 -72 -28 -74 -27 -66 39
11 91 33 125 185 289 34 36 18 24 -39 -31 -52 -49 -89 -82 -82 -73 7 10 11 30
8 44 -5 30 23 155 34 149 4 -3 6 5 6 18 -1 12 2 36 7 52 6 26 6 28 -6 13 -12
-17 -14 -15 -31 13 -14 25 -15 30 -3 26 9 -4 18 -2 21 3 11 18 35 11 29 -7 -4
-14 -2 -13 7 2 6 11 13 21 14 22 1 2 47 12 103 23 139 28 218 54 275 90 26 16
49 30 52 30 2 0 6 -10 8 -22 3 -18 5 -17 6 7 1 22 15 44 52 80 42 41 99 128
99 150 0 13 -17 2 -38 -25z m-23 -72 c-5 -10 -17 -18 -25 -18 -8 0 -13 -4 -10
-8 3 -5 -8 -22 -24 -37 -17 -16 -30 -23 -30 -16 0 10 -3 11 -13 2 -8 -6 -18
-7 -23 -3 -4 4 -3 0 3 -8 10 -13 4 -21 -35 -46 -67 -43 -102 -57 -102 -41 0 9
-3 8 -9 -1 -8 -14 -47 -25 -136 -41 -27 -5 -58 -12 -67 -16 -11 -4 -23 1 -35
14 -9 12 -22 21 -28 21 -5 0 -3 -5 5 -11 13 -9 13 -10 0 -6 -8 2 -14 10 -12
16 1 6 -9 10 -25 9 -16 -2 -30 2 -32 7 -2 6 10 9 28 7 19 -2 31 1 31 8 0 7 7
9 18 5 14 -5 15 -4 5 6 -10 10 -16 10 -25 1 -7 -7 -19 -12 -27 -12 -22 1 15
22 43 26 12 1 37 9 57 18 20 8 46 12 59 9 16 -4 21 -3 16 6 -6 8 -1 10 16 6
16 -4 29 -1 37 9 14 16 56 22 64 9 2 -5 3 -3 1 3 -1 7 15 16 36 22 34 8 41 7
52 -9 10 -15 16 -16 28 -8 13 9 13 10 -2 6 -9 -3 -19 0 -22 8 -3 9 10 19 42
29 26 9 50 15 53 13 3 -1 13 6 23 16 10 9 21 15 26 12 5 -3 11 -2 14 3 3 5 12
9 20 9 11 0 13 -5 5 -19z"/>
<path d="M1944 4324 c-7 -39 0 -105 20 -182 13 -50 13 -51 -8 -41 -14 7 -9 -1
12 -20 17 -17 32 -32 32 -34 0 -1 -18 -1 -40 1 -22 2 -40 0 -40 -4 0 -5 21
-10 47 -10 48 -2 56 -8 106 -83 12 -19 29 -37 37 -41 8 -4 26 -13 40 -19 35
-17 171 -147 162 -155 -4 -4 0 -6 8 -4 11 2 14 -5 12 -27 l-3 -30 13 25 c13
23 32 36 88 58 l25 10 -25 -2 c-14 -1 -38 -9 -55 -18 l-29 -16 -61 58 c-79 77
-134 120 -154 121 -9 0 2 7 24 14 l40 13 -48 -3 c-26 -2 -45 0 -42 5 3 5 -10
29 -29 54 -19 25 -37 59 -41 76 -4 16 -11 30 -16 30 -5 0 -21 26 -36 58 -21
44 -27 73 -27 130 -1 39 -2 72 -3 72 -1 0 -5 -16 -9 -36z"/>
<path d="M2139 4260 c-25 -15 -42 -65 -35 -104 8 -41 56 -86 92 -86 49 0 82
59 70 125 -11 58 -79 93 -127 65z"/>
<path d="M2657 4159 c-21 -13 -47 -61 -47 -90 0 -11 16 -37 35 -56 42 -42 85
-43 128 -4 78 71 -23 204 -116 150z"/>
<path d="M2510 3414 c-41 -31 -93 -65 -115 -76 -22 -11 -50 -33 -63 -48 -18
-23 -36 -31 -92 -41 -80 -14 -96 -9 -155 48 -19 19 -35 31 -35 27 0 -3 19 -24
42 -45 23 -21 40 -40 38 -41 -3 -2 -31 -16 -62 -30 l-58 -28 -16 25 c-9 14
-25 25 -35 25 -11 0 -24 10 -29 23 -10 22 -10 22 -7 -3 1 -16 10 -26 27 -30
15 -4 24 -13 22 -21 -2 -8 -3 -45 -3 -82 l1 -69 -43 33 c-50 39 -71 52 -42 26
60 -55 76 -67 84 -67 4 0 11 -17 14 -37 10 -62 120 -224 151 -223 6 0 3 5 -6
11 -9 5 -42 46 -72 92 -56 85 -76 148 -76 243 0 37 2 42 20 37 11 -3 26 -13
33 -23 7 -9 27 -25 45 -34 32 -16 35 -16 85 8 29 13 66 37 82 54 24 22 47 32
99 41 66 12 71 11 181 -24 l112 -36 -4 -39 c-6 -59 18 -105 58 -115 133 -29
155 -27 205 20 18 18 36 30 38 28 2 -2 3 3 3 13 -1 9 3 19 9 21 15 5 -6 -131
-26 -167 -18 -34 -93 -130 -121 -157 -13 -12 -35 -27 -49 -32 l-25 -11 25 3
c20 2 29 -6 48 -43 23 -43 24 -57 29 -270 5 -206 4 -228 -13 -265 -22 -45 -53
-65 -106 -65 -30 0 -42 6 -66 36 -47 57 -63 128 -69 315 -6 188 -2 230 30 260
l22 21 -30 -5 c-16 -4 -65 -9 -108 -13 -65 -5 -89 -3 -150 16 -39 13 -76 27
-82 32 -14 13 -23 9 -21 -9 3 -19 42 -53 61 -53 9 0 -7 -60 -50 -188 -95 -283
-128 -339 -200 -330 -48 5 -70 63 -70 183 0 55 3 132 7 170 5 49 4 60 -3 35
-5 -19 -11 -89 -15 -155 -6 -126 5 -185 43 -227 20 -22 71 -23 102 -2 34 24
93 155 152 337 28 89 56 167 63 172 7 7 54 9 124 7 l112 -4 0 -161 c-1 -247
21 -359 84 -422 55 -55 159 -21 187 62 11 36 7 477 -6 568 -5 36 -1 45 39 92
24 29 45 51 47 50 2 -1 3 0 2 2 -5 9 19 41 27 36 6 -3 7 1 4 9 -3 8 2 35 11
62 10 29 16 84 17 146 1 56 5 93 9 86 5 -7 9 -8 9 -2 0 6 10 16 23 21 33 16
97 74 97 89 0 17 11 23 62 34 41 9 40 9 -12 4 -30 -3 -80 -12 -110 -19 l-55
-15 53 6 c68 8 69 -9 3 -59 -44 -34 -57 -38 -115 -41 l-66 -3 23 26 c13 14 27
34 30 44 4 11 18 18 39 19 18 0 -32 5 -112 9 -133 7 -375 4 -460 -6 -19 -2
-28 -2 -20 2 43 18 239 162 220 162 -3 0 -39 -25 -80 -55z m153 -124 c-3 -11
-1 -20 5 -20 5 0 9 8 8 18 -1 15 9 17 114 13 63 -2 117 -5 119 -7 10 -10 -21
-56 -34 -50 -8 3 -12 0 -9 -8 12 -30 -65 -57 -101 -34 -5 3 -30 9 -55 13 -25
4 -58 14 -73 22 -15 7 -32 11 -38 7 -6 -3 -22 -1 -37 5 -15 5 -47 15 -71 21
-58 15 -42 28 39 33 149 8 139 9 133 -13z m196 -193 c40 3 71 2 71 -3 0 -18
-40 -73 -65 -90 -20 -13 -39 -15 -85 -11 -90 10 -110 28 -110 103 l0 32 59
-19 c45 -14 76 -17 130 -12z"/>
</g>
</svg>
